<?xml version="1.0" encoding="UTF-8" standalone="no"?>
<!-- Created with Inkscape (http://www.inkscape.org/) -->

<svg
   xmlns:dc="http://purl.org/dc/elements/1.1/"
   xmlns:cc="http://creativecommons.org/ns#"
   xmlns:rdf="http://www.w3.org/1999/02/22-rdf-syntax-ns#"
   xmlns:svg="http://www.w3.org/2000/svg"
   xmlns="http://www.w3.org/2000/svg"
   xmlns:xlink="http://www.w3.org/1999/xlink"
   xmlns:sodipodi="http://sodipodi.sourceforge.net/DTD/sodipodi-0.dtd"
   xmlns:inkscape="http://www.inkscape.org/namespaces/inkscape"
   width="20.537287mm"
   height="25.588106mm"
   viewBox="0 0 20.537287 25.588106"
   version="1.1"
   id="svg1778"
   inkscape:version="0.92.4 (5da689c313, 2019-01-14)"
   sodipodi:docname="cat.svg">
  <defs
     id="defs1772">
    <linearGradient
       inkscape:collect="always"
       xlink:href="#linearGradient7499"
       id="linearGradient7583"
       gradientUnits="userSpaceOnUse"
       gradientTransform="matrix(0.54038824,0,0,0.47048457,104.64345,57.719023)"
       x1="152.52182"
       y1="37.570381"
       x2="143.77257"
       y2="47.794209" />
    <linearGradient
       inkscape:collect="always"
       id="linearGradient7499">
      <stop
         style="stop-color:#000000;stop-opacity:1;"
         offset="0"
         id="stop7495" />
      <stop
         style="stop-color:#000000;stop-opacity:0;"
         offset="1"
         id="stop7497" />
    </linearGradient>
  </defs>
  <sodipodi:namedview
     id="base"
     pagecolor="#ffffff"
     bordercolor="#666666"
     borderopacity="1.0"
     inkscape:pageopacity="0.0"
     inkscape:pageshadow="2"
     inkscape:zoom="0.35"
     inkscape:cx="-359.76081"
     inkscape:cy="-254.50167"
     inkscape:document-units="mm"
     inkscape:current-layer="layer1"
     showgrid="false"
     fit-margin-top="0"
     fit-margin-left="0"
     fit-margin-right="0"
     fit-margin-bottom="0"
     inkscape:window-width="1366"
     inkscape:window-height="705"
     inkscape:window-x="1358"
     inkscape:window-y="-8"
     inkscape:window-maximized="1" />
  <metadata
     id="metadata1775">
    <rdf:RDF>
      <cc:Work
         rdf:about="">
        <dc:format>image/svg+xml</dc:format>
        <dc:type
           rdf:resource="http://purl.org/dc/dcmitype/StillImage" />
        <dc:title></dc:title>
      </cc:Work>
    </rdf:RDF>
  </metadata>
  <g
     inkscape:label="Layer 1"
     inkscape:groupmode="layer"
     id="layer1"
     transform="translate(-72.130167,-55.908327)">
    <g
       id="g7794"
       transform="translate(-102.12963,-12.277991)">
      <ellipse
         transform="rotate(-1.6630638)"
         ry="5.0682111"
         rx="6.3318701"
         cy="83.018074"
         cx="181.23866"
         id="path7276"
         style="opacity:1;fill:#000000;fill-opacity:1;fill-rule:nonzero;stroke:#000000;stroke-width:0.10084529;stroke-linecap:butt;stroke-linejoin:round;stroke-miterlimit:4;stroke-dasharray:none;stroke-dashoffset:0;stroke-opacity:1;paint-order:stroke fill markers" />
      <path
         inkscape:connector-curvature="0"
         id="path7307"
         d="m 177.65538,75.913009 c -0.13518,-0.28658 -0.19178,-1.229772 -0.11375,-1.895203 0.0929,-0.792185 0.33038,-1.705776 0.44421,-1.709081 0.0934,-0.0027 0.81821,0.166755 1.19164,0.278583 0.36455,0.10918 1.16667,0.414323 1.39459,0.530533 l 0.1302,0.06638 -0.29311,0.146967 c -1.14414,0.573677 -2.01782,1.382421 -2.55714,2.36708 -0.14655,0.267592 -0.16317,0.285735 -0.19667,0.214738 z"
         style="opacity:1;fill:#000000;fill-opacity:1;fill-rule:nonzero;stroke:#000000;stroke-width:0.18656379;stroke-linecap:butt;stroke-linejoin:round;stroke-miterlimit:4;stroke-dasharray:none;stroke-dashoffset:0;stroke-opacity:1;paint-order:stroke fill markers" />
      <path
         inkscape:connector-curvature="0"
         id="path7307-0"
         d="m 189.56621,75.829358 c 0.11832,-0.293941 0.1201,-1.238828 0.004,-1.898612 -0.13873,-0.785457 -0.42878,-1.683734 -0.54261,-1.680429 -0.0934,0.0027 -0.80717,0.213946 -1.17346,0.347252 -0.35762,0.130148 -1.14068,0.481314 -1.36148,0.610553 l -0.12612,0.07382 0.30114,0.129712 c 1.17549,0.506329 2.09462,1.26302 2.69016,2.21473 0.16185,0.258637 0.17948,0.275785 0.2088,0.202966 z"
         style="opacity:1;fill:#000000;fill-opacity:1;fill-rule:nonzero;stroke:#000000;stroke-width:0.18656379;stroke-linecap:butt;stroke-linejoin:round;stroke-miterlimit:4;stroke-dasharray:none;stroke-dashoffset:0;stroke-opacity:1;paint-order:stroke fill markers" />
      <ellipse
         transform="rotate(-1.6630638)"
         ry="0.72451371"
         rx="0.90728843"
         cy="82.046127"
         cx="179.1609"
         id="path7324"
         style="opacity:1;fill:#ececec;fill-opacity:1;fill-rule:nonzero;stroke:#000000;stroke-width:0.22840123;stroke-linecap:butt;stroke-linejoin:round;stroke-miterlimit:4;stroke-dasharray:none;stroke-dashoffset:0;stroke-opacity:1;paint-order:stroke fill markers" />
      <ellipse
         transform="rotate(-1.6630638)"
         ry="0.72451371"
         rx="0.90728843"
         cy="82.13607"
         cx="183.86578"
         id="path7324-7"
         style="opacity:1;fill:#ececec;fill-opacity:1;fill-rule:nonzero;stroke:#000000;stroke-width:0.22840123;stroke-linecap:butt;stroke-linejoin:round;stroke-miterlimit:4;stroke-dasharray:none;stroke-dashoffset:0;stroke-opacity:1;paint-order:stroke fill markers" />
      <path
         inkscape:connector-curvature="0"
         id="path7341"
         d="m 183.21806,78.568828 c 1.29941,0.747517 1.29941,0.747517 1.29941,0.747517"
         style="fill:#ff8080;stroke:#ff8080;stroke-width:0.13362001;stroke-linecap:round;stroke-linejoin:round;stroke-miterlimit:4;stroke-dasharray:none;stroke-opacity:1" />
      <path
         inkscape:connector-curvature="0"
         id="path7341-8"
         d="m 184.43884,78.549743 c -1.25385,0.82165 -1.25385,0.82165 -1.25385,0.82165"
         style="fill:#ff8080;stroke:#ff8080;stroke-width:0.13362001;stroke-linecap:round;stroke-linejoin:round;stroke-miterlimit:4;stroke-dasharray:none;stroke-opacity:1" />
      <ellipse
         transform="rotate(-1.6630638)"
         cx="181.11462"
         cy="80.783607"
         rx="9.0575428"
         ry="7.2383552"
         id="path7358"
         style="opacity:1;fill:none;fill-opacity:1;fill-rule:nonzero;stroke:#4d4d4d;stroke-width:0.13362001;stroke-linecap:round;stroke-linejoin:round;stroke-miterlimit:4;stroke-dasharray:none;stroke-dashoffset:0;stroke-opacity:0.98477155;paint-order:stroke fill markers" />
      <ellipse
         transform="rotate(-1.6630638)"
         cx="181.08806"
         cy="80.806732"
         rx="9.0575428"
         ry="7.2383552"
         id="path7358-8"
         style="opacity:0.43200001;fill:url(#linearGradient7583);fill-opacity:1;fill-rule:nonzero;stroke:none;stroke-width:0.13362001;stroke-linecap:round;stroke-linejoin:round;stroke-miterlimit:4;stroke-dasharray:none;stroke-dashoffset:0;stroke-opacity:0.98477155;paint-order:stroke fill markers" />
      <path
         sodipodi:nodetypes="ccsc"
         inkscape:connector-curvature="0"
         id="path7521"
         d="m 180.67801,82.093804 c -4.66298,9.674616 -3.32056,10.358689 -2.18002,10.94691 4.67791,0.899545 9.56046,0.751447 11.89756,-0.244661 1.75764,-0.749129 -0.8903,-8.359832 -3.50667,-10.949758"
         style="fill:none;stroke:#000000;stroke-width:0.11367054px;stroke-linecap:round;stroke-linejoin:round;stroke-opacity:1" />
      <path
         sodipodi:nodetypes="cscsscccccscscccsccscccsc"
         inkscape:connector-curvature="0"
         id="path7523"
         d="m 184.45296,93.731212 c -2.16939,-0.02772 -2.6774,0.0098 -4.50902,-0.292208 -0.5457,-0.08999 -1.21115,-0.276154 -1.43664,-0.406158 -0.56821,-0.327606 -1.14891,-0.908784 -1.17027,-1.698981 -0.04,-1.486797 0.97796,-4.013847 2.86546,-8.085985 l 0.46385,-1.000714 0.35214,0.05213 c 0.54281,0.08036 1.7763,0.174323 2.38307,0.181517 0.3253,0.0038 0.76915,-0.01644 1.09649,-0.05021 0.54173,-0.05584 1.78629,-0.271476 2.24096,-0.388278 0.12797,-0.03288 0.2672,-0.06078 0.30938,-0.062 0.0455,-0.0013 0.20123,0.156013 0.38228,0.386106 1.48358,1.885416 2.92847,5.141934 3.41229,7.690721 0.1066,0.561308 0.1415,1.711331 0.0615,2.019572 0.0642,0.523825 -0.15825,0.769617 -0.82147,1.021612 -1.31389,0.506877 -3.28862,0.660406 -5.62993,0.63287 z m 2.02041,-3.443485 c 0.12129,-0.09035 0.0642,-0.230324 -0.11245,-0.275847 -0.28081,-0.07235 -0.53013,0.170312 -0.30961,0.301333 0.11721,0.06963 0.31001,0.058 0.42206,-0.02549 z m -1.32673,-5.39269 c 0.12828,-0.174236 -0.11725,-0.325106 -0.38786,-0.238316 -0.10445,0.0335 -0.13195,0.06765 -0.12927,0.160407 0.002,0.07611 0.0369,0.129416 0.0982,0.150521 0.15051,0.05194 0.35319,0.01682 0.41902,-0.0726 z"
         style="opacity:1;fill:#000000;fill-opacity:1;fill-rule:nonzero;stroke:#000000;stroke-width:0.08026302;stroke-linecap:round;stroke-linejoin:round;stroke-miterlimit:4;stroke-dasharray:none;stroke-dashoffset:0;stroke-opacity:1;paint-order:stroke fill markers" />
      <path
         inkscape:connector-curvature="0"
         id="path7535"
         d="m 184.47207,84.889874 c -0.10087,-0.185253 0.033,-0.317286 0.33041,-0.325832 0.29745,-0.0086 0.43888,0.115589 0.34896,0.306316 -0.0752,0.159534 -0.59496,0.174464 -0.67937,0.01951 z"
         style="opacity:1;fill:#000000;fill-opacity:1;fill-rule:nonzero;stroke:#000000;stroke-width:0.14639696;stroke-linecap:round;stroke-linejoin:round;stroke-miterlimit:4;stroke-dasharray:none;stroke-dashoffset:0;stroke-opacity:1;paint-order:stroke fill markers" />
      <path
         inkscape:connector-curvature="0"
         id="path7537"
         d="m 186.11457,90.32259 c -0.1076,-0.02415 -0.16549,-0.07241 -0.14724,-0.122422 0.0245,-0.06662 0.0889,-0.08345 0.33372,-0.08718 0.25391,-0.0039 0.30929,0.01 0.33968,0.08494 0.0461,0.113461 -0.25658,0.185164 -0.52614,0.124667 z"
         style="opacity:1;fill:#000000;fill-opacity:1;fill-rule:nonzero;stroke:#000000;stroke-width:0.10970272;stroke-linecap:round;stroke-linejoin:round;stroke-miterlimit:4;stroke-dasharray:none;stroke-dashoffset:0;stroke-opacity:1;paint-order:stroke fill markers" />
      <path
         sodipodi:nodetypes="cccc"
         inkscape:connector-curvature="0"
         id="path7541"
         d="m 190.05703,91.722815 c 3.00656,-2.571183 3.43709,-5.046757 2.74393,-6.014349 -1.47002,-1.610683 -0.19361,-2.176487 1.22112,-0.894733 2.44529,3.105151 -2.02687,7.051232 -3.79373,8.171565"
         style="fill:none;stroke:#000000;stroke-width:0.11367054px;stroke-linecap:butt;stroke-linejoin:miter;stroke-opacity:1" />
      <path
         sodipodi:nodetypes="cccccscssccccsscc"
         id="path7543"
         inkscape:connector-curvature="0"
         d="m 190.80694,92.456652 c 0.0194,-0.07909 -0.0692,-0.598369 -0.0799,-0.921292 l -0.1249,-0.606631 0.7546,-0.359637 c 0.86482,-0.976151 1.4264,-1.93488 1.69986,-2.901963 0.0855,-0.30257 0.10588,-0.50326 0.0951,-0.938707 -0.0155,-0.6382 -0.0637,-0.780864 -0.40678,-1.214275 -0.32161,-0.406223 -0.61075,-0.776941 -0.61826,-1.035498 -0.005,-0.184742 0.15272,-0.158515 0.262,-0.23216 0.15315,-0.103138 0.19816,-0.105926 0.493,-0.03052 0.27367,0.06999 0.87362,0.356618 1.14042,0.597764 0.21778,0.196835 0.4262,0.669383 0.58358,1.096717 0.14088,0.382552 0.20694,1.245585 0.0902,1.702709 -0.31844,1.247609 -1.33037,2.546205 -2.6139,3.830527 -0.44295,0.443232 -1.25195,1.165328 -1.29986,1.166719 -0.0158,4.58e-4 0.006,-0.07468 0.0248,-0.153753 z"
         style="opacity:1;fill:#000000;fill-opacity:1;fill-rule:nonzero;stroke:#000000;stroke-width:0.07949366;stroke-linecap:round;stroke-linejoin:round;stroke-miterlimit:4;stroke-dasharray:none;stroke-dashoffset:0;stroke-opacity:1;paint-order:stroke fill markers" />
      <path
         sodipodi:nodetypes="cc"
         inkscape:connector-curvature="0"
         id="path7545"
         d="m 181.64713,89.247358 c 0.15234,1.118061 0.19751,2.380662 -0.19592,4.234711"
         style="fill:none;fill-opacity:1;stroke:#ffffff;stroke-width:0.08893153;stroke-linecap:round;stroke-linejoin:round;stroke-miterlimit:4;stroke-dasharray:none;stroke-opacity:0.94416241" />
      <path
         sodipodi:nodetypes="cc"
         inkscape:connector-curvature="0"
         id="path7545-0"
         d="m 186.07274,89.281421 c -0.0872,1.125016 -0.059,2.388107 0.44129,4.216208"
         style="fill:none;fill-opacity:1;stroke:#ffffff;stroke-width:0.08893153;stroke-linecap:round;stroke-linejoin:round;stroke-miterlimit:4;stroke-dasharray:none;stroke-opacity:0.94416241" />
    </g>
  </g>
</svg>
